<?xml version="1.0" encoding="UTF-8" standalone="no"?><!DOCTYPE svg PUBLIC "-//W3C//DTD SVG 1.1//EN" "http://www.w3.org/Graphics/SVG/1.1/DTD/svg11.dtd"><svg width="100%" height="100%" viewBox="0 0 239 130" version="1.1" xmlns="http://www.w3.org/2000/svg" xmlns:xlink="http://www.w3.org/1999/xlink" xml:space="preserve" xmlns:serif="http://www.serif.com/" style="fill-rule:evenodd;clip-rule:evenodd;stroke-miterlimit:10;"><g><clipPath id="_clip1"><rect x="54.445" y="37.354" width="18.628" height="18.628"/></clipPath><g clip-path="url(#_clip1)"><path d="M72.859,46.668c0,-5.022 -4.077,-9.1 -9.1,-9.1c-5.022,0 -9.1,4.078 -9.1,9.1c0,5.022 4.078,9.1 9.1,9.1c5.023,0 9.1,-4.078 9.1,-9.1Z" style="fill:none;stroke:#fff;stroke-opacity:0.100006;stroke-width:0.43px;"/></g><path d="M62.522,12.99l52.591,52.591l-52.591,52.59l-52.591,-52.591l52.591,-52.59Z" style="fill:url(#_Linear2);"/><path d="M30.993,37.172l31.5,-31.456l13.983,13.891" style="fill:none;stroke:#0065c7;stroke-width:1.08px;"/><path d="M78.239,108.393l-15.712,15.712l-18.775,-18.775" style="fill:none;stroke:#ff6295;stroke-width:1.08px;"/><path d="M95.262,39.207l25.526,26.3l-13.073,12.944" style="fill:none;stroke:#ff5ba3;stroke-width:1.08px;"/><path d="M103.43,82.804l-22.303,22.527" style="fill:none;stroke:#ff43aa;stroke-width:0.54px;stroke-dasharray:2.17,2.17;"/><path d="M33.063,95.302l-29.739,-30.605l14.543,-13.772" style="fill:none;stroke:#2581ff;stroke-width:0.54px;stroke-dasharray:2.17,2.17;"/><path d="M8.323,39.329l7.131,-6.993l7.132,-6.993l4.981,19.344l-9.622,-2.679l-9.622,-2.679Z" style="fill:url(#_Linear3);fill-rule:nonzero;"/><path d="M93.913,100.54l4.094,-4.101l4.094,-4.1l1.504,5.596l1.503,5.596l-5.598,-1.495l-5.597,-1.496Z" style="fill:#0065c7;fill-rule:nonzero;"/><path d="M34.201,96.722l5.45,-1.573l5.45,-1.573l-1.363,5.507l-1.363,5.505l-4.086,-3.933l-4.088,-3.933Z" style="fill:url(#_Linear4);fill-rule:nonzero;"/><path d="M72.754,126.594l5.722,0" style="fill:none;stroke:#ff52a6;stroke-width:0.54px;stroke-linecap:round;stroke-linejoin:round;"/><path d="M75.614,123.732l0,5.723" style="fill:none;stroke:#ff52a6;stroke-width:0.54px;stroke-linecap:round;stroke-linejoin:round;"/><path d="M96.823,111.884l5.721,0" style="fill:none;stroke:#ff52a6;stroke-width:0.54px;stroke-linecap:round;stroke-linejoin:round;"/><path d="M99.684,109.023l0,5.722" style="fill:none;stroke:#ff52a6;stroke-width:0.54px;stroke-linecap:round;stroke-linejoin:round;"/><path d="M120.146,30.273l5.457,0" style="fill:none;stroke:#7d7aba;stroke-width:0.54px;stroke-linecap:round;stroke-linejoin:round;"/><path d="M122.875,27.545l0,5.457" style="fill:none;stroke:#7d7aba;stroke-width:0.54px;stroke-linecap:round;stroke-linejoin:round;"/><path d="M120.796,44.749c0,-1.33 -1.08,-2.41 -2.41,-2.41c-1.331,0 -2.41,1.08 -2.41,2.41c0,1.33 1.079,2.41 2.41,2.41c1.33,0 2.41,-1.08 2.41,-2.41Z" style="fill:none;stroke:#7d7aba;stroke-width:0.54px;stroke-linecap:round;stroke-linejoin:round;"/><path d="M23.921,12.423l4.088,0" style="fill:none;stroke:#ff5ba3;stroke-width:0.54px;stroke-linecap:round;stroke-linejoin:round;"/><path d="M25.965,10.378l0,4.09" style="fill:none;stroke:#ff5ba3;stroke-width:0.54px;stroke-linecap:round;stroke-linejoin:round;"/><path d="M17.695,106.302l4.914,0" style="fill:none;stroke:#ff538f;stroke-width:0.54px;stroke-linecap:round;stroke-linejoin:round;"/><path d="M20.151,103.845l0,4.914" style="fill:none;stroke:#ff538f;stroke-width:0.54px;stroke-linecap:round;stroke-linejoin:round;"/><path d="M42.373,5.834l4.09,0" style="fill:none;stroke:#ff5ba3;stroke-width:0.54px;stroke-linecap:round;stroke-linejoin:round;"/><path d="M44.417,3.79l0,4.09" style="fill:none;stroke:#fff;stroke-width:0.54px;stroke-linecap:round;stroke-linejoin:round;"/><path d="M38.896,20.838c0,-1.296 -1.052,-2.348 -2.348,-2.348c-1.295,0 -2.347,1.052 -2.347,2.348c0,1.295 1.052,2.348 2.347,2.348c1.296,0 2.348,-1.053 2.348,-2.348Z" style="fill:none;stroke:#ff5ba3;stroke-width:0.54px;stroke-linecap:round;stroke-linejoin:round;"/><path d="M13.745,89.579c0,-1.556 -1.264,-2.82 -2.82,-2.82c-1.557,0 -2.82,1.264 -2.82,2.82c0,1.556 1.263,2.82 2.82,2.82c1.556,0 2.82,-1.264 2.82,-2.82Z" style="fill:none;stroke:#ff538f;stroke-width:0.54px;stroke-linecap:round;stroke-linejoin:round;"/><path d="M102.769,10.248c0,-2.158 -1.752,-3.91 -3.91,-3.91c-2.158,0 -3.91,1.752 -3.91,3.91c0,2.158 1.752,3.91 3.91,3.91c2.158,0 3.91,-1.752 3.91,-3.91Z" style="fill:none;stroke:#2163cd;stroke-width:0.54px;stroke-linecap:round;stroke-linejoin:round;"/><path d="M106.434,38.614l-5.448,1.44l3.973,3.999l3.971,3.997l1.477,-5.439l1.476,-5.438l-5.449,1.441Z" style="fill:url(#_Linear5);fill-rule:nonzero;"/><path d="M81.304,25.395l-3.021,11.364l11.351,-3.066l11.352,-3.065l-8.33,-8.298l-8.332,-8.298l-3.02,11.363Z" style="fill:url(#_Linear6);fill-rule:nonzero;"/><path d="M79.173,65.899l5.473,0c0.589,0 1.143,-0.062 1.665,-0.187c0.521,-0.124 0.974,-0.334 1.36,-0.629c0.385,-0.294 0.685,-0.668 0.9,-1.122c0.216,-0.453 0.324,-1.008 0.324,-1.666c0,-0.634 -0.114,-1.172 -0.34,-1.614c-0.227,-0.442 -0.533,-0.799 -0.918,-1.071c-0.386,-0.272 -0.833,-0.47 -1.343,-0.595c-0.51,-0.124 -1.037,-0.187 -1.58,-0.187l-2.414,0l-6.221,0l0,-5.676l8.023,0c0.679,0 1.364,0.011 2.056,0.034c0.691,0.023 1.377,0.091 2.057,0.204c0.68,0.113 1.336,0.295 1.971,0.544c0.634,0.249 1.235,0.59 1.801,1.02c1.043,0.861 1.825,1.903 2.346,3.127c0.521,1.224 0.782,2.504 0.782,3.841c0,0.975 -0.142,1.909 -0.425,2.804c-0.284,0.896 -0.697,1.7 -1.24,2.414c-0.544,0.714 -1.207,1.314 -1.989,1.801c-0.782,0.488 -1.671,0.811 -2.668,0.969l6.866,8.668l-7.41,0l-9.076,-12.679Zm-4.453,-12.747l0,25.426l-5.643,0l-9.688,-15.501l-0.068,0.069l0.17,15.432l-6.22,0l0,-25.426l5.574,0l9.858,15.942l0.068,-0.034l-0.17,-10.232l-0.374,0l-3.399,0l0,-5.676l9.892,0Zm-35.454,25.426c-1.79,0 -3.473,-0.328 -5.048,-0.986c-1.575,-0.657 -2.946,-1.558 -4.113,-2.702c-1.167,-1.144 -2.09,-2.498 -2.77,-4.062c-0.68,-1.564 -1.02,-3.252 -1.02,-5.065c0,-1.79 0.334,-3.456 1.003,-4.997c0.668,-1.541 1.581,-2.883 2.736,-4.028c1.156,-1.144 2.515,-2.04 4.079,-2.685c1.563,-0.646 3.241,-0.969 5.031,-0.969c2.266,0 4.334,0.493 6.204,1.479c1.869,0.985 3.416,2.407 4.639,4.265c0.386,0.635 0.726,1.292 1.02,1.972c0.295,0.68 0.499,1.383 0.612,2.108l-6.56,0c-0.499,-1.269 -1.27,-2.306 -2.312,-3.111c-1.042,-0.804 -2.243,-1.207 -3.603,-1.207c-0.997,0 -1.904,0.199 -2.72,0.596c-0.815,0.396 -1.512,0.923 -2.09,1.58c-0.578,0.657 -1.02,1.417 -1.326,2.278c-0.306,0.861 -0.459,1.767 -0.459,2.719c0,0.952 0.153,1.865 0.459,2.737c0.306,0.872 0.748,1.648 1.326,2.328c0.578,0.68 1.275,1.224 2.09,1.631c0.816,0.408 1.723,0.612 2.72,0.612c1.405,0 2.606,-0.385 3.603,-1.155c0.997,-0.771 1.768,-1.768 2.312,-2.992l6.56,0c-0.362,1.451 -0.935,2.77 -1.716,3.96c-0.782,1.19 -1.717,2.204 -2.805,3.042c-1.088,0.839 -2.3,1.491 -3.637,1.955c-1.337,0.465 -2.742,0.697 -4.215,0.697" style="fill:#fff;fill-rule:nonzero;"/><path d="M199.666,54.002c-1.598,0.658 -2.998,1.559 -4.198,2.703c-1.202,1.143 -2.159,2.498 -2.873,4.061c-0.714,1.564 -1.071,3.241 -1.071,5.031c0,1.791 0.363,3.462 1.088,5.015c0.726,1.552 1.694,2.906 2.906,4.062c1.213,1.154 2.618,2.062 4.216,2.719c1.597,0.658 3.268,0.986 5.014,0.986l0.305,0c0.567,-0.022 1.128,-0.08 1.683,-0.171c0.555,-0.09 1.093,-0.203 1.614,-0.339l2.652,-3.74l3.026,-4.385l0.645,-0.917l1.53,-2.209l-2.957,0l-12.204,0l0,2.209l10.64,0l-4.997,7.104c-0.589,0.136 -1.202,0.204 -1.836,0.204c-1.473,0 -2.872,-0.266 -4.198,-0.799c-1.326,-0.532 -2.481,-1.269 -3.467,-2.209c-0.986,-0.941 -1.767,-2.045 -2.345,-3.315c-0.578,-1.268 -0.868,-2.651 -0.868,-4.146c0,-1.474 0.29,-2.856 0.868,-4.148c0.578,-1.291 1.353,-2.413 2.328,-3.365c0.975,-0.952 2.113,-1.7 3.417,-2.243c1.302,-0.545 2.69,-0.816 4.164,-0.816c0.838,0 1.687,0.108 2.549,0.322c0.861,0.216 1.676,0.528 2.447,0.936c0.77,0.407 1.485,0.906 2.142,1.495c0.657,0.59 1.201,1.258 1.631,2.005l2.856,0c-0.182,-0.476 -0.414,-0.918 -0.697,-1.325c-0.284,-0.408 -0.584,-0.804 -0.9,-1.19c-1.293,-1.427 -2.811,-2.537 -4.556,-3.331c-1.745,-0.793 -3.58,-1.19 -5.506,-1.19c-1.768,0 -3.451,0.329 -5.048,0.986Zm-58.007,-0.986l0,25.495l13.97,0l0,-2.278l-11.387,0l0,-9.415l6.628,0l0,-2.312l-6.628,0l0,-9.178l11.387,0l0,-2.312l-13.97,0Zm41.606,0.034l-2.55,0l-6.118,0l0,2.346l6.118,0l0,20.905l-6.118,0l0,2.278l14.786,0l0,-2.278l-6.118,0l0,-20.905l6.118,0l0,-2.346l-6.118,0Zm52.552,0.035l-6.051,0l0,2.345l6.051,0l0,18.797l-0.035,0l-14.243,-21.142l-3.433,0l0,25.494l2.584,0l0,-22.401l0.034,0l15.093,22.401l2.583,0l0,-25.494l-2.583,0Zm-72.539,0.492c-0.838,0.329 -1.57,0.788 -2.193,1.377c-0.624,0.59 -1.121,1.286 -1.496,2.09c-0.373,0.804 -0.56,1.694 -0.56,2.668c0,1.066 0.17,1.955 0.509,2.669c0.341,0.714 0.805,1.315 1.394,1.802c0.59,0.487 1.269,0.883 2.04,1.189c0.77,0.306 1.598,0.584 2.482,0.833c0.656,0.204 1.314,0.442 1.971,0.714c0.657,0.272 1.245,0.607 1.767,1.003c0.521,0.396 0.941,0.878 1.258,1.445c0.317,0.567 0.476,1.269 0.476,2.107c0,0.68 -0.131,1.321 -0.391,1.921c-0.261,0.6 -0.617,1.121 -1.07,1.563c-0.454,0.442 -0.981,0.793 -1.581,1.054c-0.601,0.261 -1.241,0.391 -1.921,0.391c-1.564,0 -2.793,-0.47 -3.688,-1.411c-0.896,-0.94 -1.377,-2.18 -1.445,-3.722l-2.481,0c0.023,1.111 0.226,2.12 0.612,3.025c0.384,0.907 0.912,1.678 1.581,2.312c0.667,0.635 1.467,1.128 2.396,1.479c0.929,0.351 1.937,0.526 3.025,0.526c1.02,0 1.977,-0.186 2.872,-0.56c0.896,-0.374 1.677,-0.884 2.346,-1.53c0.668,-0.646 1.201,-1.411 1.598,-2.295c0.396,-0.883 0.595,-1.835 0.595,-2.855c0,-0.951 -0.148,-1.807 -0.442,-2.566c-0.295,-0.759 -0.709,-1.428 -1.241,-2.005c-0.533,-0.579 -1.162,-1.077 -1.887,-1.497c-0.725,-0.418 -1.53,-0.764 -2.413,-1.037c-0.635,-0.203 -1.304,-0.401 -2.006,-0.594c-0.703,-0.192 -1.342,-0.453 -1.92,-0.782c-0.578,-0.328 -1.054,-0.748 -1.428,-1.258c-0.374,-0.51 -0.561,-1.184 -0.561,-2.022c0,-0.612 0.119,-1.184 0.357,-1.717c0.238,-0.533 0.561,-0.986 0.969,-1.36c0.408,-0.373 0.884,-0.667 1.428,-0.883c0.543,-0.215 1.121,-0.323 1.733,-0.323c0.612,0 1.184,0.119 1.717,0.357c0.532,0.237 0.997,0.561 1.394,0.968c0.396,0.409 0.708,0.884 0.934,1.428c0.227,0.544 0.341,1.122 0.341,1.734l2.413,0c0,-0.952 -0.176,-1.842 -0.528,-2.669c-0.351,-0.827 -0.832,-1.54 -1.444,-2.141c-0.612,-0.601 -1.331,-1.071 -2.158,-1.411c-0.828,-0.339 -1.717,-0.509 -2.669,-0.509c-0.951,0 -1.847,0.164 -2.685,0.492Zm-45.073,-0.492l0,2.345l6.186,0c1.496,0 2.951,0.102 4.368,0.306c1.417,0.204 2.759,0.747 4.028,1.631c1.383,0.952 2.448,2.176 3.196,3.672c0.747,1.495 1.122,3.071 1.122,4.724c0,0.794 -0.086,1.592 -0.256,2.397c-0.169,0.804 -0.419,1.576 -0.748,2.311c-0.328,0.737 -0.741,1.423 -1.24,2.057c-0.499,0.635 -1.077,1.19 -1.733,1.665c-0.636,0.454 -1.276,0.817 -1.922,1.088c-0.645,0.272 -1.309,0.476 -1.988,0.612c-0.68,0.135 -1.377,0.226 -2.09,0.272c-0.714,0.046 -1.445,0.068 -2.193,0.068l-4.215,0l-2.515,0l0,2.278l7.41,0c0.657,0 1.349,-0.04 2.073,-0.12c0.725,-0.079 1.451,-0.203 2.176,-0.374c0.726,-0.17 1.428,-0.385 2.108,-0.646c0.679,-0.259 1.314,-0.582 1.903,-0.968c0.883,-0.566 1.683,-1.235 2.396,-2.005c0.714,-0.771 1.315,-1.61 1.802,-2.516c0.487,-0.906 0.867,-1.87 1.139,-2.889c0.271,-1.02 0.407,-2.062 0.407,-3.127c0,-2.131 -0.504,-4.148 -1.512,-6.051c-1.009,-1.904 -2.419,-3.434 -4.232,-4.589c-1.155,-0.771 -2.481,-1.32 -3.978,-1.649c-1.494,-0.328 -2.923,-0.492 -4.282,-0.492l-7.41,0Z" style="fill:url(#_Radial7);fill-rule:nonzero;"/></g><defs><linearGradient id="_Linear2" x1="0" y1="0" x2="1" y2="0" gradientUnits="userSpaceOnUse" gradientTransform="matrix(105.181,0,0,105.181,9.93154,65.5802)"><stop offset="0" style="stop-color:#231c36;stop-opacity:1"/><stop offset="1" style="stop-color:#3c4a5f;stop-opacity:1"/></linearGradient><linearGradient id="_Linear3" x1="0" y1="0" x2="1" y2="0" gradientUnits="userSpaceOnUse" gradientTransform="matrix(16.7526,-4.31415,4.31415,16.7526,8.32306,39.3289)"><stop offset="0" style="stop-color:#084ac6;stop-opacity:1"/><stop offset="0.49" style="stop-color:#084ac6;stop-opacity:1"/><stop offset="1" style="stop-color:#0066c5;stop-opacity:1"/></linearGradient><linearGradient id="_Linear4" x1="0" y1="0" x2="1" y2="0" gradientUnits="userSpaceOnUse" gradientTransform="matrix(-5.93402,8.16801,-8.16801,-5.93402,43.8676,92.9748)"><stop offset="0" style="stop-color:#00b6d2;stop-opacity:1"/><stop offset="0.04" style="stop-color:#00b6d2;stop-opacity:1"/><stop offset="0.49" style="stop-color:#00b6d2;stop-opacity:1"/><stop offset="1" style="stop-color:#00e6d0;stop-opacity:1"/></linearGradient><linearGradient id="_Linear5" x1="0" y1="0" x2="1" y2="0" gradientUnits="userSpaceOnUse" gradientTransform="matrix(13.448,-13.448,13.448,13.448,96.9914,52.0187)"><stop offset="0" style="stop-color:#00b6d2;stop-opacity:1"/><stop offset="0.49" style="stop-color:#00b6d2;stop-opacity:1"/><stop offset="1" style="stop-color:#00e6d0;stop-opacity:1"/></linearGradient><linearGradient id="_Linear6" x1="0" y1="0" x2="1" y2="0" gradientUnits="userSpaceOnUse" gradientTransform="matrix(30.4609,-30.4609,30.4609,30.4609,68.326,46.6585)"><stop offset="0" style="stop-color:#ff5ca7;stop-opacity:1"/><stop offset="0.49" style="stop-color:#ff5ca7;stop-opacity:1"/><stop offset="1" style="stop-color:#d600c5;stop-opacity:1"/></linearGradient><radialGradient id="_Radial7" cx="0" cy="0" r="1" gradientUnits="userSpaceOnUse" gradientTransform="matrix(43.4483,0,0,43.4483,178.302,65.8137)"><stop offset="0" style="stop-color:#231c36;stop-opacity:1"/><stop offset="1" style="stop-color:#2e394b;stop-opacity:1"/></radialGradient></defs></svg>