<?xml version="1.0" encoding="UTF-8" standalone="no"?><!DOCTYPE svg PUBLIC "-//W3C//DTD SVG 1.1//EN" "http://www.w3.org/Graphics/SVG/1.1/DTD/svg11.dtd"><svg width="100%" height="100%" viewBox="0 0 47 39" version="1.1" xmlns="http://www.w3.org/2000/svg" xmlns:xlink="http://www.w3.org/1999/xlink" xml:space="preserve" xmlns:serif="http://www.serif.com/" style="fill-rule:evenodd;clip-rule:evenodd;stroke-linejoin:round;stroke-miterlimit:1.41421;"><g id="Layer_1-2"><path d="M45.42,8.61c-1.33,-1.33 -3.18,-0.37 -4,0.32l-7.7,6.76c-0.47,-3 -2,-3.67 -3.24,-3.67c-1.206,0.095 -2.359,0.536 -3.32,1.27l-2.77,2.08c-0.582,0.489 -1.318,0.758 -2.079,0.758c-1.772,0 -3.23,-1.458 -3.23,-3.23c0,-1.079 0.541,-2.09 1.439,-2.688l2.77,-2.08c4,-3.07 2.82,-7.15 -4.46,-8c-0.701,-0.088 -1.407,-0.132 -2.113,-0.132c-9.293,0 -16.94,7.647 -16.94,16.94c0,8.767 6.806,16.159 15.543,16.882c-0.343,1.391 -0.235,2.855 0.31,4.18c0.068,0.163 0.197,0.292 0.36,0.36c4.12,1.72 9.4,-1.27 9.08,-5.44c0.2,0 -0.07,0.12 4,-2.64c0.23,0.099 0.477,0.15 0.727,0.15c1.009,0 1.84,-0.831 1.84,-1.84c0,-0.201 -0.033,-0.4 -0.097,-0.59l9.57,-10.91c0.097,-0.119 0.15,-0.269 0.15,-0.423c0,-0.367 -0.302,-0.67 -0.67,-0.67c-0.181,0 -0.354,0.073 -0.48,0.203l-9.43,10.8l-3.62,-3.62l15.27,-13.38c0,0 1.37,-1.15 2.13,-0.38c0.76,0.77 -0.37,2.12 -0.38,2.13l-2.54,2.9c-0.097,0.119 -0.15,0.269 -0.15,0.423c0,0.367 0.302,0.67 0.67,0.67c0.181,0 0.354,-0.073 0.48,-0.203l2.54,-2.9c0.71,-0.85 1.67,-2.7 0.34,-4.03Zm-22.74,27.19c0.682,-0.623 1.071,-1.505 1.071,-2.429c0,-0.831 -0.315,-1.632 -0.881,-2.241c-0.571,-0.566 -1.346,-0.88 -2.15,-0.87c-2.95,0 -4.95,4.05 -3.95,7c2.084,0.683 4.384,0.115 5.91,-1.46Zm3.32,-13.31c-0.194,-0.067 -0.398,-0.101 -0.604,-0.101c-1.015,0 -1.85,0.835 -1.85,1.85c0,0.262 0.056,0.522 0.164,0.761c-2.68,4 -2.6,3.79 -2.64,4c-2.32,-0.054 -4.437,1.364 -5.27,3.53c-8.231,-0.444 -14.763,-7.337 -14.763,-15.58c0,-8.559 7.044,-15.603 15.603,-15.603c0.28,0 0.56,0.008 0.84,0.023c3.52,0.12 6.52,1.4 6.73,2.86c0.22,1.3 -1.52,2.68 -1.72,2.82l-2.76,2.08c-1.254,0.852 -2.006,2.273 -2.006,3.788c0,2.513 2.067,4.58 4.58,4.58c1.064,0 2.095,-0.37 2.916,-1.048l2.78,-2.07c0.729,-0.564 1.603,-0.91 2.52,-1c1.18,0 1.85,1.14 2,3.4l-6.52,5.71Zm-1,8.93l-2.39,-2.42l2,-3l3.39,3.4l-3,2.02Zm-11.09,-8.33c1.799,0 3.28,1.481 3.28,3.28c0,1.799 -1.481,3.28 -3.28,3.28c-1.799,0 -3.28,-1.481 -3.28,-3.28c0,-1.799 1.481,-3.28 3.28,-3.28Zm16.38,5.55c0,-0.21 0.279,0.129 -4.65,-4.8c-0.139,-0.134 -0.361,-0.134 -0.5,0l-0.14,0.14c-0.067,0.066 -0.105,0.156 -0.105,0.25c0,0.094 0.038,0.184 0.105,0.25l4.52,4.55c0.139,0.134 0.361,0.134 0.5,0c0.13,-0.14 0.24,-0.21 0.24,-0.39l0.03,0Zm-16.38,-0.34c-1.059,0 -1.93,-0.871 -1.93,-1.93c0,-1.059 0.871,-1.93 1.93,-1.93c1.059,0 1.93,0.871 1.93,1.93c0,1.059 -0.871,1.93 -1.93,1.93Zm-6.29,-10.85c1.814,0.005 3.305,1.496 3.31,3.31c0,1.816 -1.494,3.31 -3.31,3.31c-1.816,0 -3.31,-1.494 -3.31,-3.31c0,-1.816 1.494,-3.31 3.31,-3.31Zm0,5.28c1.097,0 2,-0.903 2,-2c0,-1.097 -0.903,-2 -2,-2c-1.097,0 -2,0.903 -2,2c0,1.097 0.903,2 2,2Zm0.64,-6.81c-1.792,-0.011 -3.26,-1.488 -3.26,-3.28c0,-1.799 1.481,-3.28 3.28,-3.28c1.799,0 3.28,1.481 3.28,3.28c0,1.799 -1.481,3.28 -3.28,3.28l-0.02,0Zm0,-5.21c1.059,0 1.93,0.871 1.93,1.93c0,1.059 -0.871,1.93 -1.93,1.93c-1.059,0 -1.93,-0.871 -1.93,-1.93c0,-1.059 0.871,-1.93 1.93,-1.93Zm5.74,-1.11c1.492,0 2.72,-1.228 2.72,-2.72c0,-1.492 -1.228,-2.72 -2.72,-2.72c-1.492,0 -2.72,1.228 -2.72,2.72c0,1.492 1.228,2.72 2.72,2.72Zm0,-4.09c0.752,0 1.37,0.618 1.37,1.37c0,0.752 -0.618,1.37 -1.37,1.37c-0.752,0 -1.37,-0.618 -1.37,-1.37c0,-0.752 0.618,-1.37 1.37,-1.37Z" style="fill:url(#_Linear1);"/></g><defs><linearGradient id="_Linear1" x1="0" y1="0" x2="1" y2="0" gradientUnits="userSpaceOnUse" gradientTransform="matrix(46.2225,0,0,38.786,-0.308117,19.4264)"><stop offset="0" style="stop-color:#ff5ca3;stop-opacity:1"/><stop offset="0.49" style="stop-color:#ff5ca3;stop-opacity:1"/><stop offset="1" style="stop-color:#b700c0;stop-opacity:1"/></linearGradient></defs></svg>