<?xml version="1.0" encoding="UTF-8" standalone="no"?><!DOCTYPE svg PUBLIC "-//W3C//DTD SVG 1.1//EN" "http://www.w3.org/Graphics/SVG/1.1/DTD/svg11.dtd"><svg width="100%" height="100%" viewBox="0 0 36 40" version="1.1" xmlns="http://www.w3.org/2000/svg" xmlns:xlink="http://www.w3.org/1999/xlink" xml:space="preserve" xmlns:serif="http://www.serif.com/" style="fill-rule:evenodd;clip-rule:evenodd;stroke-linejoin:round;stroke-miterlimit:1.41421;"><path id="Layer_1-2" d="M35.71,35.87l-1.11,-6.23c-0.384,-1.775 -1.742,-3.187 -3.5,-3.64l-5.7,-1.2l-1.17,-2.4c-0.066,-0.123 -0.167,-0.224 -0.29,-0.29c1.029,-1.355 1.851,-2.854 2.44,-4.45c1.127,-0.399 1.997,-1.315 2.34,-2.46c0.472,-1.284 0.068,-2.735 -1,-3.59l0,-2.25c0,-5.42 -4.14,-9.36 -9.84,-9.36c-5.7,0 -9.88,3.94 -9.88,9.36l0,2.26c-1.063,0.854 -1.467,2.299 -1,3.58c0.344,1.154 1.223,2.074 2.36,2.47c0.58,1.599 1.396,3.102 2.42,4.46c-0.119,0.064 -0.216,0.161 -0.28,0.28l-1.17,2.4l-5.66,1.19c-1.758,0.445 -3.12,1.849 -3.51,3.62l-1.11,6.24c-0.169,0.835 0.048,1.703 0.59,2.36c0.551,0.65 1.368,1.018 2.22,1l30.04,0c0.026,0.001 0.051,0.001 0.077,0.001c1.531,0 2.79,-1.259 2.79,-2.79c0,-0.188 -0.019,-0.376 -0.057,-0.561Zm-1.65,1.47c-0.289,0.33 -0.712,0.513 -1.15,0.5l-5.79,0l0,-3.36c0,-0.379 -0.311,-0.69 -0.69,-0.69c-0.379,0 -0.69,0.311 -0.69,0.69c0,0 0,3.34 0,3.34l-15.74,0l0,-3.34c0,-0.381 -0.314,-0.695 -0.695,-0.695c-0.381,0 -0.695,0.314 -0.695,0.695l0,3.34l-5.75,0c-0.438,0.013 -0.861,-0.17 -1.15,-0.5c-0.275,-0.342 -0.382,-0.791 -0.29,-1.22l1.11,-6.23c0.301,-1.222 1.252,-2.184 2.47,-2.5l5.31,-1.12l0.08,0.08l5.76,3.33c0.105,0.065 0.226,0.099 0.35,0.1c0.066,0.011 0.134,0.011 0.2,0c0.184,-0.056 0.336,-0.187 0.42,-0.36l0.8,-1.65l0.8,1.65c0.084,0.173 0.236,0.304 0.42,0.36c0.066,0.011 0.134,0.011 0.2,0c0.124,-0.001 0.244,-0.036 0.35,-0.1l5.76,-3.33l0.08,-0.08l5.31,1.12c1.208,0.326 2.143,1.292 2.43,2.51l1.11,6.23c0.085,0.434 -0.033,0.884 -0.32,1.22l0,0.01Zm-22,-12.88l0.37,-0.75l0.86,0.5l1.8,1.04l1.9,1.1l-0.86,1.76l-3.9,-2.26l-0.66,-0.38l0.1,-0.21l0.39,-0.8Zm11.58,0l0.39,0.79l0.1,0.21l-0.66,0.38l-3.89,2.26l-0.86,-1.76l1.9,-1.1l0.9,-0.52l0.9,-0.52l0.86,-0.5l0.36,0.76Zm-13.2,-8c-0.921,-0.061 -1.716,-0.682 -2,-1.56c-0.25,-1 0,-2 0.54,-2.11c0.171,-0.041 0.351,-0.012 0.5,0.08l0,-3.5c0,-4.9 3.77,-7.94 8.42,-7.94c4.65,0 8.42,3 8.42,7.94l0,3.47c0.149,-0.093 0.329,-0.122 0.5,-0.08c0.55,0.15 0.79,1.1 0.54,2.11c-0.286,0.877 -1.08,1.496 -2,1.56c-0.85,2.59 -2.7,6 -5.37,7.26c-1.308,0.625 -2.832,0.625 -4.14,0c-2.71,-1.22 -4.52,-4.61 -5.38,-7.26l-0.03,0.03Z" style="fill:url(#_Linear1);fill-rule:nonzero;"/><defs><linearGradient id="_Linear1" x1="0" y1="0" x2="1" y2="0" gradientUnits="userSpaceOnUse" gradientTransform="matrix(29.94,-29.94,29.94,29.94,2.91,40.5)"><stop offset="0" style="stop-color:#36b5d0;stop-opacity:1"/><stop offset="0.49" style="stop-color:#36b5d0;stop-opacity:1"/><stop offset="1" style="stop-color:#36e5d0;stop-opacity:1"/></linearGradient></defs></svg>