<?xml version="1.0" encoding="UTF-8" standalone="no"?><!DOCTYPE svg PUBLIC "-//W3C//DTD SVG 1.1//EN" "http://www.w3.org/Graphics/SVG/1.1/DTD/svg11.dtd"><svg width="100%" height="100%" viewBox="0 0 39 40" version="1.1" xmlns="http://www.w3.org/2000/svg" xmlns:xlink="http://www.w3.org/1999/xlink" xml:space="preserve" xmlns:serif="http://www.serif.com/" style="fill-rule:evenodd;clip-rule:evenodd;stroke-linejoin:round;stroke-miterlimit:1.41421;"><g id="Layer_1-2"><path d="M27.73,16.79l-0.04,0c1.814,0.005 3.305,1.496 3.31,3.31l0,13.4c-0.027,1.784 -1.486,3.243 -3.27,3.27l-16.5,0l-6,2.8c-0.085,0.038 -0.176,0.057 -0.269,0.057c-0.362,0 -0.66,-0.298 -0.66,-0.66c0,-0.053 0.006,-0.106 0.019,-0.157l0.52,-2l-1.53,0c-1.814,-0.005 -3.305,-1.496 -3.31,-3.31l0,-13.4c0.005,-1.814 1.496,-3.305 3.31,-3.31l24.42,0Zm0,18.71c1.097,0 2,-0.903 2,-2l0,-13.4c0,-1.097 -0.903,-2 -2,-2l-24.42,0c-1.097,0 -2,0.903 -2,2l0,13.4c0,1.097 0.903,2 2,2l2.37,0c0.362,0 0.66,0.298 0.66,0.66c0,0.054 -0.007,0.108 -0.02,0.16l-0.39,1.52l4.91,-2.28c0.088,-0.04 0.183,-0.061 0.28,-0.06l16.61,0Zm-1.63,-4.02c0.027,-0.003 0.054,-0.005 0.081,-0.005c0.362,0 0.66,0.298 0.66,0.66c0,0.362 -0.298,0.66 -0.66,0.66c-0.027,0 -0.054,-0.002 -0.081,-0.005l-21.16,0c-0.027,0.003 -0.054,0.005 -0.081,0.005c-0.362,0 -0.66,-0.298 -0.66,-0.66c0,-0.362 0.298,-0.66 0.66,-0.66c0.027,0 0.054,0.002 0.081,0.005l21.16,0Zm0,-3.61c0.027,-0.003 0.054,-0.005 0.081,-0.005c0.362,0 0.66,0.298 0.66,0.66c0,0.362 -0.298,0.66 -0.66,0.66c-0.027,0 -0.054,-0.002 -0.081,-0.005l-21.16,0c-0.027,0.003 -0.054,0.005 -0.081,0.005c-0.362,0 -0.66,-0.298 -0.66,-0.66c0,-0.362 0.298,-0.66 0.66,-0.66c0.027,0 0.054,0.002 0.081,0.005l21.16,0Zm0,-3.62c0.027,-0.003 0.054,-0.005 0.081,-0.005c0.362,0 0.66,0.298 0.66,0.66c0,0.362 -0.298,0.66 -0.66,0.66c-0.027,0 -0.054,-0.002 -0.081,-0.005l-21.16,0c-0.329,-0.041 -0.579,-0.323 -0.579,-0.655c0,-0.332 0.25,-0.614 0.579,-0.655l21.16,0Zm0,-3.61c0.027,-0.003 0.054,-0.005 0.081,-0.005c0.362,0 0.66,0.298 0.66,0.66c0,0.362 -0.298,0.66 -0.66,0.66c-0.027,0 -0.054,-0.002 -0.081,-0.005l-21.16,0c-0.329,-0.041 -0.579,-0.323 -0.579,-0.655c0,-0.332 0.25,-0.614 0.579,-0.655l21.16,0Zm-1.67,-20.64l11,0c1.81,0.011 3.295,1.5 3.3,3.31l0,7.85c-0.005,1.814 -1.496,3.305 -3.31,3.31l-2,0l0,1.86c-0.007,0.357 -0.302,0.648 -0.66,0.648c-0.093,0 -0.185,-0.02 -0.27,-0.058l-5.27,-2.44l-2.81,0c-1.814,-0.005 -3.305,-1.496 -3.31,-3.31l0,-7.86c0.005,-1.818 1.502,-3.31 3.32,-3.31l0.01,0Zm10.95,1.31l-11,0c-1.097,0 -2,0.903 -2,2l0,7.86c0,1.097 0.903,2 2,2l3,0c0.097,-0.001 0.192,0.02 0.28,0.06l4.48,2.08l0,-1.49c0.005,-0.358 0.302,-0.65 0.66,-0.65l2.63,0c1.097,0 2,-0.903 2,-2l-0.05,-7.86c0,-1.097 -0.903,-2 -2,-2Zm-5.55,9.75c-0.001,0 -0.002,0 -0.003,0c-0.362,0 -0.66,0.298 -0.66,0.66c0,0.362 0.298,0.66 0.66,0.66c0.362,0 0.66,-0.298 0.66,-0.66c0,-0.177 -0.071,-0.346 -0.197,-0.47c-0.123,-0.121 -0.288,-0.189 -0.46,-0.19Zm0.09,-8.21c-1.563,0 -2.85,1.287 -2.85,2.85c0.041,0.329 0.323,0.579 0.655,0.579c0.332,0 0.614,-0.25 0.655,-0.579c0.005,-0.836 0.694,-1.522 1.53,-1.522c0.839,0 1.53,0.691 1.53,1.53c0,0.523 -0.268,1.012 -0.71,1.292c-0.995,0.564 -1.597,1.637 -1.56,2.78c0.016,0.351 0.309,0.63 0.66,0.63c0.358,-0.016 0.641,-0.322 0.63,-0.68c-0.017,-0.66 0.334,-1.278 0.91,-1.6c0.835,-0.52 1.345,-1.436 1.345,-2.42c0,-1.561 -1.284,-2.847 -2.845,-2.85l0.05,-0.01Z" style="fill:url(#_Linear1);"/></g><defs><linearGradient id="_Linear1" x1="0" y1="0" x2="1" y2="0" gradientUnits="userSpaceOnUse" gradientTransform="matrix(38.78,0,0,53.8606,-4.44089e-16,19.8507)"><stop offset="0" style="stop-color:#2c4bc1;stop-opacity:1"/><stop offset="0.49" style="stop-color:#2c4bc1;stop-opacity:1"/><stop offset="1" style="stop-color:#2c66c1;stop-opacity:1"/></linearGradient></defs></svg>