<?xml version="1.0" standalone="no"?>
<!DOCTYPE svg PUBLIC "-//W3C//DTD SVG 20010904//EN"
 "http://www.w3.org/TR/2001/REC-SVG-20010904/DTD/svg10.dtd">
<svg version="1.0" xmlns="http://www.w3.org/2000/svg"
 width="260.000000pt" height="260.000000pt" viewBox="0 0 260.000000 260.000000"
 preserveAspectRatio="xMidYMid meet">
<metadata>
Created by potrace 1.11, written by Peter Selinger 2001-2013
</metadata>
<g transform="translate(0.000000,260.000000) scale(0.100000,-0.100000)"
fill="#000000" stroke="none">
<path d="M935 2250 c-181 -182 -325 -330 -320 -330 6 0 152 142 325 315 173
173 319 315 325 315 5 0 72 -62 147 -137 76 -75 140 -135 142 -132 3 3 -61 71
-142 152 l-147 147 -330 -330z"/>
<path d="M863 2553 c15 -2 37 -2 50 0 12 2 0 4 -28 4 -27 0 -38 -2 -22 -4z"/>
<path d="M1994 2552 c-30 -4 -62 -42 -70 -79 -5 -25 0 -37 24 -64 39 -44 93
-46 128 -5 57 66 3 162 -82 148z m71 -37 c69 -68 -31 -170 -102 -103 -30 28
-30 74 -1 105 29 31 72 30 103 -2z"/>
<path d="M500 2451 c0 -12 -8 -21 -22 -24 l-23 -4 23 -2 c15 -1 22 -7 22 -21
0 -11 5 -20 10 -20 6 0 10 9 10 19 0 12 8 21 23 24 l22 4 -22 2 c-13 0 -23 7
-23 15 0 8 -4 18 -10 21 -5 3 -10 -3 -10 -14z"/>
<path d="M712 1867 l-542 -542 304 -304 c168 -168 303 -308 301 -312 -3 -3
-26 -12 -52 -18 l-46 -12 83 -84 c80 -80 99 -90 100 -48 0 6 5 24 10 39 11 28
11 28 206 -167 l194 -194 548 548 547 547 -318 318 -319 319 161 43 c89 23
161 46 161 49 0 13 -338 343 -343 335 -3 -5 -21 -72 -41 -149 -20 -77 -39
-147 -42 -154 -3 -10 -62 42 -177 157 -95 95 -177 172 -182 172 -6 0 -254
-244 -553 -543z m693 -42 c158 -41 305 -180 350 -329 l14 -46 -133 0 c-131 0
-133 0 -144 24 -6 14 -27 43 -47 64 -120 134 -348 99 -424 -64 -94 -200 13
-434 208 -451 36 -3 79 -1 106 7 53 15 122 72 150 124 l20 36 132 0 132 0 -8
-27 c-19 -65 -77 -160 -130 -213 -266 -263 -724 -168 -861 179 -76 195 -31
413 117 559 112 110 209 150 368 151 52 1 116 -6 150 -14z"/>
<path d="M686 2284 c-21 -21 -20 -47 2 -67 27 -24 59 -21 78 8 15 23 15 27 0
50 -19 29 -56 33 -80 9z m58 0 c19 -7 21 -45 4 -62 -32 -32 -80 8 -58 48 11
21 27 25 54 14z"/>
<path d="M285 2017 l-149 -143 119 -34 c66 -18 157 -43 203 -56 53 -15 82 -19
82 -12 0 19 -92 373 -100 381 -3 4 -73 -57 -155 -136z"/>
<path d="M2511 2088 c-1 -22 -6 -27 -33 -31 l-33 -4 32 -1 c28 -2 32 -6 36
-34 l4 -33 1 32 c2 26 7 32 30 36 l27 4 -27 2 c-21 1 -28 7 -31 29 l-4 27 -2
-27z"/>
<path d="M2163 1882 c-57 -14 -103 -29 -103 -32 0 -3 37 -43 83 -88 l83 -82
30 115 c19 69 26 115 20 114 -6 -1 -57 -13 -113 -27z"/>
<path d="M1940 1865 c0 -4 117 -127 260 -273 l259 -267 -129 -130 c-72 -72
-130 -134 -130 -138 0 -10 280 255 280 264 0 7 -520 542 -532 547 -5 2 -8 1
-8 -3z"/>
<path d="M2373 1784 c-15 -24 -15 -29 -2 -53 28 -49 109 -32 109 24 0 54 -77
75 -107 29z m81 -6 c13 -19 14 -25 2 -43 -26 -39 -76 -26 -76 19 0 46 48 62
74 24z"/>
<path d="M250 1549 c0 -5 5 -7 10 -4 6 3 10 8 10 11 0 2 -4 4 -10 4 -5 0 -10
-5 -10 -11z"/>
<path d="M155 1460 c-3 -5 -1 -10 4 -10 6 0 11 5 11 10 0 6 -2 10 -4 10 -3 0
-8 -4 -11 -10z"/>
<path d="M60 1369 c0 -5 5 -7 10 -4 6 3 10 8 10 11 0 2 -4 4 -10 4 -5 0 -10
-5 -10 -11z"/>
<path d="M40 1345 c0 -8 4 -15 10 -15 5 0 7 7 4 15 -4 8 -8 15 -10 15 -2 0 -4
-7 -4 -15z"/>
<path d="M65 1310 c3 -5 11 -10 16 -10 6 0 7 5 4 10 -3 6 -11 10 -16 10 -6 0
-7 -4 -4 -10z"/>
<path d="M97 1279 c7 -7 15 -10 18 -7 3 3 -2 9 -12 12 -14 6 -15 5 -6 -5z"/>
<path d="M210 1156 c0 -2 7 -7 16 -10 8 -3 12 -2 9 4 -6 10 -25 14 -25 6z"/>
<path d="M240 1126 c0 -2 7 -7 16 -10 8 -3 12 -2 9 4 -6 10 -25 14 -25 6z"/>
<path d="M275 1090 c3 -5 8 -10 11 -10 2 0 4 5 4 10 0 6 -5 10 -11 10 -5 0 -7
-4 -4 -10z"/>
<path d="M305 1060 c3 -5 11 -10 16 -10 6 0 7 5 4 10 -3 6 -11 10 -16 10 -6 0
-7 -4 -4 -10z"/>
<path d="M335 1030 c3 -5 11 -10 16 -10 6 0 7 5 4 10 -3 6 -11 10 -16 10 -6 0
-7 -4 -4 -10z"/>
<path d="M365 1000 c3 -5 11 -10 16 -10 6 0 7 5 4 10 -3 6 -11 10 -16 10 -6 0
-7 -4 -4 -10z"/>
<path d="M397 969 c7 -7 15 -10 18 -7 3 3 -2 9 -12 12 -14 6 -15 5 -6 -5z"/>
<path d="M2060 929 c0 -5 5 -7 10 -4 6 3 10 8 10 11 0 2 -4 4 -10 4 -5 0 -10
-5 -10 -11z"/>
<path d="M2030 899 c0 -5 5 -7 10 -4 6 3 10 8 10 11 0 2 -4 4 -10 4 -5 0 -10
-5 -10 -11z"/>
<path d="M147 872 c-36 -40 -9 -102 44 -102 30 0 43 9 58 38 12 23 1 58 -23
74 -20 14 -63 8 -79 -10z m82 -6 c38 -46 -25 -111 -69 -71 -24 22 -25 42 -3
67 19 22 56 24 72 4z"/>
<path d="M1985 690 c-43 -44 -76 -82 -73 -85 8 -8 221 -65 226 -61 6 7 -54
220 -64 223 -5 2 -45 -33 -89 -77z"/>
<path d="M610 750 c0 -5 5 -10 11 -10 5 0 7 5 4 10 -3 6 -8 10 -11 10 -2 0 -4
-4 -4 -10z"/>
<path d="M1885 750 c-3 -5 -1 -10 4 -10 6 0 11 5 11 10 0 6 -2 10 -4 10 -3 0
-8 -4 -11 -10z"/>
<path d="M640 720 c0 -5 5 -10 11 -10 5 0 7 5 4 10 -3 6 -8 10 -11 10 -2 0 -4
-4 -4 -10z"/>
<path d="M1785 650 c-3 -6 1 -7 9 -4 18 7 21 14 7 14 -6 0 -13 -4 -16 -10z"/>
<path d="M1755 620 c-3 -6 1 -7 9 -4 18 7 21 14 7 14 -6 0 -13 -4 -16 -10z"/>
<path d="M1725 590 c-3 -5 -2 -10 4 -10 5 0 13 5 16 10 3 6 2 10 -4 10 -5 0
-13 -4 -16 -10z"/>
<path d="M1695 560 c-3 -5 -2 -10 4 -10 5 0 13 5 16 10 3 6 2 10 -4 10 -5 0
-13 -4 -16 -10z"/>
<path d="M381 518 c-1 -23 -6 -28 -26 -28 -14 0 -25 -4 -25 -10 0 -5 11 -10
24 -10 19 0 26 -6 29 -27 l4 -28 2 28 c1 22 6 27 26 27 14 0 25 5 25 10 0 6
-11 10 -24 10 -19 0 -26 6 -29 28 l-4 27 -2 -27z"/>
<path d="M1665 530 c-3 -5 -2 -10 4 -10 5 0 13 5 16 10 3 6 2 10 -4 10 -5 0
-13 -4 -16 -10z"/>
<path d="M1062 303 l198 -198 165 165 c90 90 162 166 159 169 -2 3 -77 -67
-164 -154 l-160 -160 -188 188 c-103 103 -192 187 -197 187 -5 0 79 -89 187
-197z"/>
<path d="M2032 403 c-2 -28 -6 -32 -34 -36 l-33 -4 32 -1 c26 -2 32 -7 36 -29
l4 -28 2 27 c1 21 7 28 29 31 l27 4 -27 2 c-22 1 -27 6 -31 34 l-4 32 -1 -32z"/>
<path d="M1531 98 c-1 -22 -6 -27 -33 -31 l-33 -4 32 -1 c28 -2 32 -6 36 -35
l4 -32 1 32 c2 26 7 32 30 36 l27 4 -27 2 c-21 1 -28 7 -31 29 l-4 27 -2 -27z"/>
</g>
</svg>
